<svg width="130" height="130" viewBox="0 0 130 130" fill="none" xmlns="http://www.w3.org/2000/svg">
<path d="M64.9999 70.7958C68.675 70.7958 71.6542 67.8166 71.6542 64.1415C71.6542 60.4665 68.675 57.4873 64.9999 57.4873C61.3249 57.4873 58.3457 60.4665 58.3457 64.1415C58.3457 67.8166 61.3249 70.7958 64.9999 70.7958Z" fill="black"/>
<path d="M45.6453 50.6037C48.7154 53.7832 52.5083 55.8439 56.5159 56.777C55.7253 52.7392 53.8 48.8757 50.7299 45.6962C47.6599 42.5152 43.8669 40.456 39.8594 39.5215C40.6499 43.5578 42.5752 47.4228 45.6453 50.6037Z" fill="black"/>
<path d="M50.6037 84.352C53.7832 81.2834 55.8439 77.489 56.777 73.4814C52.7407 74.2734 48.8772 76.2002 45.6962 79.2688C42.5167 82.3403 40.4546 86.1333 39.5215 90.1408C43.5578 89.3474 47.4213 87.4235 50.6037 84.352Z" fill="black"/>
<path d="M84.3525 79.3969C81.2809 76.216 77.488 74.1553 73.4805 73.2236C74.271 77.2614 76.1978 81.1249 79.2678 84.303C82.3379 87.484 86.1323 89.5446 90.1384 90.4777C89.3464 86.4414 87.4197 82.5764 84.3525 79.3969Z" fill="black"/>
<path d="M79.3974 45.6473C76.215 48.7173 74.1543 52.5103 73.2227 56.5178C77.259 55.7244 81.1225 53.802 84.302 50.7304C87.4844 47.6604 89.5451 43.8674 90.4767 39.8613C86.4404 40.6504 82.5755 42.5772 79.3974 45.6473Z" fill="black"/>
<path d="M65.0001 6.08203C35.0467 45.8635 65.0001 46.2969 65.0001 46.2969C65.0001 46.2969 94.9536 45.8649 65.0001 6.08203Z" fill="black"/>
<path d="M65.0001 123.916C94.9521 84.1356 65.0001 83.7021 65.0001 83.7021C65.0001 83.7021 35.0467 84.1356 65.0001 123.916Z" fill="black"/>
<path d="M6.08203 64.9992C45.8635 94.9526 46.2969 64.9992 46.2969 64.9992C46.2969 64.9992 45.8635 35.0457 6.08203 64.9992Z" fill="black"/>
<path d="M123.918 64.9992C84.1366 35.0457 83.7031 64.9992 83.7031 64.9992C83.7031 64.9992 84.1366 94.954 123.918 64.9992Z" fill="black"/>
</svg>
